<?xml version="1.0" encoding="iso-8859-1"?>
<!-- Generator: Adobe Illustrator 19.0.0, SVG Export Plug-In . SVG Version: 6.00 Build 0)  -->
<svg version="1.1" id="Layer_1" xmlns="http://www.w3.org/2000/svg" xmlns:xlink="http://www.w3.org/1999/xlink" x="0px" y="0px"
	 viewBox="0 0 473.935 473.935" style="enable-background:new 0 0 473.935 473.935;" xml:space="preserve">
<circle style="fill:#49A0AE;" cx="236.967" cy="236.967" r="236.967"/>
<path style="fill:#F7F2F3;" d="M362.871,277.113c0,12.093-25.324,21.901-37.414,21.901l-76.654-0.341V182.779
	c0-12.093,8.718-21.62,23.727-21.904c15.008-0.284,36.243,13.433,46.814,23.106C348.652,210.801,362.871,277.113,362.871,277.113z"
	/>
<path style="fill:#9DDAEC;" d="M332.125,222.962l-68.291,0.176v-38.683c0-9.867,5.979-13.953,13.594-12.516
	c7.615,1.444,25.642,10.544,34.428,19.839C328.072,208.93,332.125,222.962,332.125,222.962z"/>
<path style="fill:#F7F2F3;" d="M264.204,303.826H86.409c-16.067,0-18.578-13.029-18.578-29.092V163.696
	c0-16.071,13.025-21.396,29.092-21.396h138.184c16.067,0,29.092,5.325,29.092,21.396v140.13H264.204z"/>
<path style="fill:#EDC92C;" d="M235.149,142.087h-14.967v-12.471c0-4.135,3.353-7.491,7.484-7.491l0,0
	c4.131,0,7.484,3.353,7.484,7.491V142.087z"/>
<path style="fill:#F37C2A;" d="M227.901,142.087h-7.719v-12.471c0-4.135,3.353-7.491,7.484-7.491l0,0L227.901,142.087z"/>
<path style="fill:#F7F2F3;" d="M416.775,286.714c0,9.444-7.663,17.107-17.111,17.107h-99.098c-9.448,0-17.111-7.663-17.111-17.107
	v-45.818c0-9.444,7.663-17.107,17.111-17.107l99.094,11.143c9.448,0,17.111,7.667,17.111,17.107v34.675H416.775z"/>
<path style="fill:#EFECEC;" d="M416.618,295.631c0,4.988-4.045,9.033-9.029,9.033H78.304c-4.988,0-9.029-4.045-9.029-9.033v-5.01
	c0-4.984,347.343-4.984,347.343,0L416.618,295.631L416.618,295.631z"/>
<circle style="fill:#202121;" cx="150.233" cy="301.738" r="30.196"/>
<circle style="fill:#5E5F5E;" cx="150.233" cy="301.738" r="17.972"/>
<circle style="fill:#A19F9F;" cx="150.233" cy="301.738" r="6.717"/>
<circle style="fill:#202121;" cx="361.195" cy="301.738" r="30.196"/>
<circle style="fill:#5E5F5E;" cx="361.195" cy="301.738" r="17.972"/>
<circle style="fill:#A19F9F;" cx="361.195" cy="301.738" r="6.717"/>
<g>
	<rect x="67.203" y="256.125" style="fill:#D62127;" width="349.745" height="10.103"/>
	<path style="fill:#D62127;" d="M136.601,169.499l-1.485,0.007l-1.485-0.007c-2.492,0-7.136,0-7.136,5.313v58.877
		c0,5.317,4.644,5.317,7.136,5.317l1.485-0.007l1.482,0.007c1.658,0,3.255-0.056,4.587-0.703c1.167-0.565,2.559-1.826,2.559-4.61
		v-58.881C143.741,169.499,138.918,169.499,136.601,169.499z"/>
	<path style="fill:#D62127;" d="M166.947,190.221l-0.666-1.325l-0.651-1.343c-1.104-2.234-3.158-6.395-7.918-4.049l-52.812,26.024
		c-4.767,2.354-2.717,6.518-1.616,8.752l0.666,1.332l0.647,1.336c0.733,1.482,1.489,2.889,2.664,3.798
		c1.021,0.801,2.769,1.489,5.265,0.258l52.808-26.032C170.102,196.623,167.969,192.294,166.947,190.221z"/>
	<path style="fill:#D62127;" d="M165.529,221.155l0.659-1.328l0.67-1.325c1.119-2.234,3.195-6.38-1.553-8.763l-52.632-26.376
		c-4.756-2.391-6.836,1.766-7.951,3.985l-0.666,1.34l-0.67,1.321c-0.741,1.482-1.411,2.937-1.426,4.415
		c-0.019,1.302,0.486,3.113,2.975,4.355l52.636,26.38C162.326,227.542,164.485,223.224,165.529,221.155z"/>
</g>
<g>
</g>
<g>
</g>
<g>
</g>
<g>
</g>
<g>
</g>
<g>
</g>
<g>
</g>
<g>
</g>
<g>
</g>
<g>
</g>
<g>
</g>
<g>
</g>
<g>
</g>
<g>
</g>
<g>
</g>
</svg>
