<?xml version="1.0" encoding="iso-8859-1"?>
<!-- Generator: Adobe Illustrator 19.0.0, SVG Export Plug-In . SVG Version: 6.00 Build 0)  -->
<svg version="1.1" id="Layer_1" xmlns="http://www.w3.org/2000/svg" xmlns:xlink="http://www.w3.org/1999/xlink" x="0px" y="0px"
	 viewBox="0 0 473.931 473.931" style="enable-background:new 0 0 473.931 473.931;" xml:space="preserve">
<circle style="fill:#357180;" cx="236.966" cy="236.966" r="236.966"/>
<path style="fill:#63998F;" d="M236.954,38.304c-6.63,0-17.152,5.298-17.152,19.498c0,10.911,9.699,16.048,14.032,17.796v32.886
	c0,1.717,1.399,3.113,3.121,3.113s3.121-1.396,3.121-3.113V73.398c0-1.396-0.935-2.63-2.275-3.012
	c-0.116-0.03-11.76-3.48-11.76-12.584c0-9.729,6.529-13.257,10.915-13.257c10.297,0,17.152,2.391,17.152,14.039
	c0,1.717,1.396,3.113,3.121,3.113c1.717,0,3.117-1.396,3.117-3.113C260.34,45.129,252.472,38.304,236.954,38.304z"/>
<path style="fill:#E84849;" d="M237.127,435.604c-2.26,0-4.086-1.826-4.086-4.086V280.98c0-2.26,1.826-4.093,4.086-4.093
	c2.26,0,4.09,1.833,4.09,4.093v150.538C241.216,433.779,239.39,435.604,237.127,435.604z"/>
<path style="fill:#E13F41;" d="M237.127,435.604c-2.26,0-4.086-1.826-4.086-4.086V280.98c0-2.26,1.826-4.093,4.086-4.093V435.604z"
	/>
<path style="fill:#CAE8E4;" d="M167.317,127.508v95.291c0,32.471,22.271,50.903,52.343,55.857v29.796
	c0,9.646,7.824,17.467,17.467,17.467c9.646,0,17.47-7.82,17.47-17.467v-29.859c29.859-5.066,51.913-23.48,51.913-55.79v-95.295
	h-69.387H167.317z"/>
<path style="fill:#BCE2DD;" d="M167.317,127.508v95.291c0,32.471,22.271,50.903,52.343,55.857v29.796
	c0,9.646,7.824,17.467,17.467,17.467l-0.004-198.407h-69.806V127.508z"/>
<path style="fill:#87C3B7;" d="M318.038,115.729c0,8.15-6.604,14.746-14.743,14.746H170.609c-8.142,0-14.743-6.6-14.743-14.746l0,0
	c0-8.15,6.604-14.739,14.743-14.739h132.687C311.438,100.986,318.038,107.579,318.038,115.729L318.038,115.729z"/>
<path style="fill:#80BAAE;" d="M237.138,130.475h-66.528c-8.142,0-14.743-6.6-14.743-14.746l0,0c0-8.15,6.604-14.739,14.743-14.739
	h66.659L237.138,130.475z"/>
<path style="fill:#E84849;" d="M170.879,198.186v23.633c0,31.719,22.368,49.358,52.183,53.421v28.108
	c0,7.753,6.301,14.062,14.065,14.062c7.764,0,14.065-6.309,14.065-14.062v-28.172c29.601-4.18,51.756-21.792,51.756-53.358v-23.633
	h-65.825H170.879z"/>
<path style="fill:#E13F41;" d="M170.879,198.186v23.633c0,31.719,22.368,49.358,52.183,53.421v28.108
	c0,7.753,6.301,14.062,14.065,14.062l-0.004-119.224L170.879,198.186L170.879,198.186z"/>
<path style="fill:#87C3B7;" d="M255.974,305.058h-38.51c-6.672,0-12.086,5.407-12.086,12.082c0,6.675,5.414,12.082,12.086,12.082
	h38.51c6.672,0,12.082-5.407,12.082-12.082C268.056,310.465,262.649,305.058,255.974,305.058z"/>
<path style="fill:#80BAAE;" d="M236.891,305.058h-19.423c-6.672,0-12.086,5.407-12.086,12.082c0,6.675,5.414,12.082,12.086,12.082
	h19.592L236.891,305.058z"/>
<g>
	<circle style="fill:#EC6666;" cx="193.142" cy="207.481" r="3.742"/>
	<circle style="fill:#EC6666;" cx="224.008" cy="225.254" r="5.298"/>
	<circle style="fill:#EC6666;" cx="233.972" cy="272.348" r="3.742"/>
	<circle style="fill:#EC6666;" cx="279.21" cy="212.794" r="5.302"/>
	<circle style="fill:#EC6666;" cx="198.126" cy="239.922" r="3.431"/>
	<circle style="fill:#EC6666;" cx="251.596" cy="243.514" r="5.302"/>
	<circle style="fill:#EC6666;" cx="250.208" cy="203.14" r="5.302"/>
</g>
<g>
</g>
<g>
</g>
<g>
</g>
<g>
</g>
<g>
</g>
<g>
</g>
<g>
</g>
<g>
</g>
<g>
</g>
<g>
</g>
<g>
</g>
<g>
</g>
<g>
</g>
<g>
</g>
<g>
</g>
</svg>
