<?xml version="1.0" encoding="iso-8859-1"?>
<!-- Generator: Adobe Illustrator 19.0.0, SVG Export Plug-In . SVG Version: 6.00 Build 0)  -->
<svg version="1.1" id="Layer_1" xmlns="http://www.w3.org/2000/svg" xmlns:xlink="http://www.w3.org/1999/xlink" x="0px" y="0px"
	 viewBox="0 0 493.299 493.299" style="enable-background:new 0 0 493.299 493.299;" xml:space="preserve">
<path style="fill:#EDC92C;" d="M12.094,246.653c0-130.891,106.098-236.981,236.981-236.981
	c130.876,0,236.973,106.09,236.973,236.981c0,130.872-106.098,236.973-236.973,236.973
	C118.191,483.626,12.094,377.525,12.094,246.653z"/>
<path style="fill:#E9B82B;" d="M12.094,246.653h473.954c0,130.872-106.098,236.973-236.973,236.973
	C118.191,483.626,12.094,377.525,12.094,246.653z"/>
<path style="fill:#ED3432;" d="M409.686,207.979c0-46.005-34.188-76.358-76.354-76.358c-26.66,0-50.315,13.399-64.115,33.754
	l-10.889,13.841l-9.822-12.535c-13.586-21.085-37.264-35.06-64.209-35.06c-42.173,0-76.362,29.111-76.362,76.358
	c0,70.839,139.272,182.156,139.272,182.156c5.905,5.905,15.472,5.905,21.377,0C268.58,390.135,409.686,276.977,409.686,207.979z"/>
<path style="fill:#D62127;" d="M119.594,248.79c33.5,66.124,127.609,141.341,127.609,141.341c5.905,5.905,15.472,5.905,21.377,0
	c0,0,93.151-74.701,128.08-139.725l-106.67-0.745l-19.644-26.682l-25.257,26.503l-20.58-23.697l-36.796,62.364l-15.588-39.015
	l-23.393-60.766l-23.379,60.594L119.594,248.79z"/>
<polyline style="fill:none;stroke:#FBD5D4;stroke-width:2.5;stroke-linecap:round;stroke-linejoin:round;stroke-miterlimit:10;" points="
	1.25,249.486 125.357,249.486 147.807,184.63 187.717,288.153 224.513,225.789 245.093,249.486 267.544,222.672 289.994,249.486 
	492.049,249.486 "/>
<g>
</g>
<g>
</g>
<g>
</g>
<g>
</g>
<g>
</g>
<g>
</g>
<g>
</g>
<g>
</g>
<g>
</g>
<g>
</g>
<g>
</g>
<g>
</g>
<g>
</g>
<g>
</g>
<g>
</g>
</svg>
