<?xml version="1.0" encoding="iso-8859-1"?>
<!-- Generator: Adobe Illustrator 19.0.0, SVG Export Plug-In . SVG Version: 6.00 Build 0)  -->
<svg version="1.1" id="Layer_1" xmlns="http://www.w3.org/2000/svg" xmlns:xlink="http://www.w3.org/1999/xlink" x="0px" y="0px"
	 viewBox="0 0 473.935 473.935" style="enable-background:new 0 0 473.935 473.935;" xml:space="preserve">
<circle style="fill:#E84849;" cx="236.967" cy="236.967" r="236.967"/>
<path style="fill:#CAE8E4;" d="M330.602,161.118c-13.534-15.349-32.12-19.641-52.591-20.666v-19.394
	c7.461-8.595,11.139-18.451,11.962-25.482c0.052-0.453,0.176-0.906,0.176-1.366c0-15.873-15.749-20.535-55.438-20.535
	c-39.682,0-55.431,4.662-55.431,20.535c0,0.46,0.123,0.913,0.168,1.366c0.834,7.031,4.509,16.883,11.962,25.478v19.712
	c-18.784,1.478-35.73,6.282-48.284,20.61c-17.145,19.566-10.406,210.917-10.406,210.917c0,18.065,41.175,27.947,104.257,27.947
	s104.257-13.324,104.257-27.947C341.236,372.289,347.893,180.721,330.602,161.118z"/>
<path style="fill:#DDF0EE;" d="M234.711,73.676c-39.682,0-55.431,4.662-55.431,20.535c0,0.46,0.123,0.913,0.168,1.366
	c0.834,7.031,4.509,16.883,11.962,25.478v19.712c-18.784,1.478-35.73,6.282-48.284,20.61
	c-17.145,19.566-10.406,210.917-10.406,210.917c0,18.065,41.175,27.947,104.257,27.947L234.711,73.676z"/>
<path style="fill:#4EBFB0;" d="M234.711,101.054c29.788,0,41.59-3.495,41.59-15.394c0-3.592-11.139-8.202-39.543-8.202
	c-28.4,0-43.629,2.559-43.629,8.202C193.129,97.56,204.938,101.054,234.711,101.054z"/>
<path style="fill:#72C8BF;" d="M143.045,365.15c0-11.102-0.052-48.711,1.205-88.385l185.465,0.052
	c1.235,39.034,1.197,77.35,1.197,88.332c0,13.175-37.096,25.171-93.938,25.171C180.141,390.321,143.045,381.419,143.045,365.15z"/>
<path style="fill:#84CEC5;" d="M143.045,365.15c0-11.102-0.052-48.711,1.205-88.385l91.895,0.022c0,0,0.067,113.533-0.314,113.533
	C179.647,390.205,143.045,381.311,143.045,365.15z"/>
<g>
</g>
<g>
</g>
<g>
</g>
<g>
</g>
<g>
</g>
<g>
</g>
<g>
</g>
<g>
</g>
<g>
</g>
<g>
</g>
<g>
</g>
<g>
</g>
<g>
</g>
<g>
</g>
<g>
</g>
</svg>
