<?xml version="1.0" encoding="iso-8859-1"?>
<!-- Generator: Adobe Illustrator 19.0.0, SVG Export Plug-In . SVG Version: 6.00 Build 0)  -->
<svg version="1.1" id="Layer_1" xmlns="http://www.w3.org/2000/svg" xmlns:xlink="http://www.w3.org/1999/xlink" x="0px" y="0px"
	 viewBox="0 0 473.935 473.935" style="enable-background:new 0 0 473.935 473.935;" xml:space="preserve">
<circle style="fill:#49A0AE;" cx="236.967" cy="236.967" r="236.967"/>
<g>
	<path style="fill:#E2DCBF;" d="M96.059,199.34h182.296c5.108,0,9.246,41.227,9.246,44.961c0,3.746-4.135,6.776-9.246,6.776
		c0,0-191.538-31.82-191.538-44.961C86.817,202.015,90.959,199.34,96.059,199.34z"/>
	<path style="fill:#E2DCBF;" d="M86.099,205.349L73.41,183.187c-2.559-4.415-1.994-9.519,1.246-11.386
		c3.24-1.871,7.929,0.195,10.484,4.61l12.688,22.159c2.556,4.415,1.994,9.515-1.25,11.394
		C93.343,211.838,88.654,209.768,86.099,205.349z"/>
</g>
<path style="fill:#367A82;" d="M129.552,174.394l129.717,9.246l130.128-9.246c7.274,0,13.171,3.038,13.171,6.776
	c0,3.749-5.893,6.78-13.171,6.78H129.552c-7.274,0-13.175-3.031-13.175-6.78C116.381,177.428,122.278,174.394,129.552,174.394z"/>
<path style="fill:#E2DCBF;" d="M250.988,199.134h89.87c21.302,0,43.753,17.276,50.151,38.582l8.999,30.002
	c6.391,21.309-5.691,38.582-27.004,38.582h-89.87c-21.302,0-43.756-17.268-50.147-38.582l-17.65-56.471L250.988,199.134z"/>
<path style="fill:#90BABA;" d="M339.391,212.896c35.936,0,49.639,45.777,42.623,45.777h-42.623V212.896z"/>
<g>
	<circle style="fill:#F1EDCD;" cx="283.684" cy="247.257" r="33.975"/>
	<g>
		<path style="fill:#D62127;" d="M276.803,267.919c0,2.208,1.792,3.996,4,3.996h5.766c2.211,0,4.004-1.792,4.004-3.996v-41.306
			c0-2.208-1.792-3.989-4.004-3.989h-5.766c-2.211,0-4,1.785-4,3.989V267.919z"/>
		<path style="fill:#D62127;" d="M304.342,254.142c2.204,0,3.996-1.777,3.996-3.989v-5.77c0-2.211-1.792-3.996-3.996-3.996h-41.309
			c-2.204,0-3.992,1.789-3.992,3.996v5.77c0,2.215,1.792,3.989,3.992,3.989H304.342z"/>
	</g>
</g>
<g>
	<path style="fill:#367A82;" d="M77.912,156.418c-8.471,0-6.664,43.064,0,43.064C84.572,199.482,86.368,156.418,77.912,156.418z"/>
	<path style="fill:#367A82;" d="M56.374,177.941c0,8.479,43.072,6.679,43.072,0C99.446,171.292,56.374,169.488,56.374,177.941z"/>
</g>
<path style="fill:#255259;" d="M78.039,182.135c2.279-0.011,4.112-1.848,4.116-4.112c0-2.271-1.841-4.12-4.116-4.12
	c-2.26,0-4.105,1.845-4.112,4.12C73.927,180.287,75.782,182.124,78.039,182.135z"/>
<g>
	<path style="fill:#E2DCBF;" d="M254.752,203.55c0,2.836,2.297,5.13,5.134,5.13l0,0c2.836,0,5.126-2.294,5.126-5.13v-16.838
		c0-2.833-2.29-5.123-5.126-5.123l0,0c-2.836,0-5.134,2.29-5.134,5.123V203.55z"/>
	<path style="fill:#E2DCBF;" d="M358.426,292.14c2.836,0,5.134,2.294,5.134,5.13v16.838c0,2.836-2.297,2.455-5.134,2.455
		c-2.833,0-5.13,0.382-5.13-2.455V297.27C353.296,294.434,355.597,292.14,358.426,292.14z"/>
	<path style="fill:#E2DCBF;" d="M290.991,292.14c2.836,0,5.13,2.294,5.13,5.13v16.838c0,2.836-2.294,2.769-5.13,2.769
		c-2.84,0-5.137,0.067-5.137-2.769V297.27C285.854,294.434,288.151,292.14,290.991,292.14z"/>
	<path style="fill:#E2DCBF;" d="M376.087,321.232H269.536c-2.065,0-3.742-1.673-3.742-3.742c0-2.065,1.676-3.742,3.742-3.742
		h106.551c10.9,0,15.431-4.947,15.472-4.999c1.336-1.572,3.697-1.762,5.276-0.415c1.572,1.336,1.759,3.701,0.419,5.272
		C396.989,313.917,390.579,321.232,376.087,321.232z"/>
</g>
<g>
</g>
<g>
</g>
<g>
</g>
<g>
</g>
<g>
</g>
<g>
</g>
<g>
</g>
<g>
</g>
<g>
</g>
<g>
</g>
<g>
</g>
<g>
</g>
<g>
</g>
<g>
</g>
<g>
</g>
</svg>
