<?xml version="1.0" encoding="iso-8859-1"?>
<!-- Generator: Adobe Illustrator 19.0.0, SVG Export Plug-In . SVG Version: 6.00 Build 0)  -->
<svg version="1.1" id="Layer_1" xmlns="http://www.w3.org/2000/svg" xmlns:xlink="http://www.w3.org/1999/xlink" x="0px" y="0px"
	 viewBox="0 0 473.935 473.935" style="enable-background:new 0 0 473.935 473.935;" xml:space="preserve">
<circle style="fill:#4ABC96;" cx="236.967" cy="236.967" r="236.967"/>
<path style="fill:#8D734F;" d="M246.419,199.737c11.326,11.319,11.326,29.684,0,41.01l0,0c-11.326,11.326-29.695,11.326-41.014,0
	l-90.488-106.166c-11.319-11.323-8.808-20.15-1.804-27.135l0,0c6.993-7.001,15.824-9.519,27.143,1.8L246.419,199.737z"/>
<g>
	<path style="fill:#C2A681;" d="M375.586,193.203c-0.007-2.529-0.015-4.977-0.015-7.3H97.773
		c0,58.151-4.984,185.117,138.899,185.117c65.167,0,99.801-26.054,118.181-59.951C375.937,267.111,377.427,213.346,375.586,193.203z
		"/>
	<path style="fill:#C2A681;" d="M116.07,372.439c0-29.785,51.895-48.763,122.091-48.763c56.755,0,119.101,21.968,119.101,48.763
		H116.07z"/>
</g>
<path style="fill:#65A844;" d="M280.234,265.955c-19.775,2.279-31.367,27.801-34.795,36.591c-4.554-8.793-2.062-32.61,14.215-48.883
	c17.781-17.785,51.633-13.47,51.633-13.47s4.21,33.743-13.579,51.528c-13.893,13.897-32.041,19.005-43.27,16.614
	C259.16,282.307,280.234,265.955,280.234,265.955z"/>
<path style="fill:#608C3D;" d="M245.443,302.55c3.427-8.793,15.02-34.312,34.795-36.591c0,0-21.077,16.348-25.8,42.379
	c-3.143-0.666-5.744-1.923-7.558-3.734C246.341,304.061,245.858,303.365,245.443,302.55z"/>
<path style="fill:#65A844;" d="M204.376,255.665c25.227,2.911,40.003,35.461,44.381,46.675c5.811-11.214,2.623-41.597-18.133-62.357
	c-22.686-22.686-65.863-17.182-65.863-17.182s-5.373,43.038,17.313,65.728c17.721,17.721,40.875,24.243,55.206,21.194
	C231.265,276.518,204.376,255.665,204.376,255.665z"/>
<path style="fill:#608C3D;" d="M248.758,302.34c-4.378-11.214-19.154-43.76-44.381-46.675c0,0,26.888,20.849,32.909,54.058
	c4.004-0.853,7.323-2.451,9.639-4.763C247.613,304.275,248.219,303.384,248.758,302.34z"/>
<g>
</g>
<g>
</g>
<g>
</g>
<g>
</g>
<g>
</g>
<g>
</g>
<g>
</g>
<g>
</g>
<g>
</g>
<g>
</g>
<g>
</g>
<g>
</g>
<g>
</g>
<g>
</g>
<g>
</g>
</svg>
