<?xml version="1.0" encoding="iso-8859-1"?>
<!-- Generator: Adobe Illustrator 19.0.0, SVG Export Plug-In . SVG Version: 6.00 Build 0)  -->
<svg version="1.1" id="Layer_1" xmlns="http://www.w3.org/2000/svg" xmlns:xlink="http://www.w3.org/1999/xlink" x="0px" y="0px"
	 viewBox="0 0 473.931 473.931" style="enable-background:new 0 0 473.931 473.931;" xml:space="preserve">
<circle style="fill:#4ABC96;" cx="236.966" cy="236.966" r="236.966"/>
<path style="fill:#F3F2D9;" d="M356.418,146.363c0-73.84-53.488-109.177-119.467-109.177S117.484,72.519,117.484,146.363
	c0,29.261,11.135,27.697,11.135,78.33c0,50.637-11.135,49.058-11.135,78.323c0,73.847,45.62,133.708,119.467,133.708
	s119.467-59.861,119.467-133.708c0-29.261-11.135-41.926-11.135-78.323S356.418,175.623,356.418,146.363z"/>
<path style="fill:#E7E4B9;" d="M238.485,220.416c-44.246,0-80.246-35.999-80.246-80.257c0-44.25,35.999-80.242,80.246-80.242
	c44.25,0,80.25,35.992,80.25,80.242C318.734,184.416,282.735,220.416,238.485,220.416z M238.485,64.658
	c-41.631,0-75.501,33.867-75.501,75.501c0,41.638,33.87,75.516,75.501,75.516c41.635,0,75.505-33.878,75.505-75.516
	C313.986,98.524,280.119,64.658,238.485,64.658z"/>
<polygon style="fill:#D7AD8C;" points="201.352,205.7 271.498,206.758 237.74,236.824 "/>
<g>
	<path style="fill:#E7E4B9;" d="M237.74,242.361c-0.434,0-0.876-0.12-1.272-0.374c-1.108-0.703-1.433-2.17-0.73-3.282
		c7.54-11.839,36.557-33.223,37.788-34.129c1.051-0.775,2.541-0.546,3.315,0.513c0.775,1.051,0.55,2.537-0.509,3.319
		c-0.292,0.213-29.522,21.755-36.587,32.853C239.293,241.972,238.526,242.361,237.74,242.361z"/>
	<path style="fill:#E7E4B9;" d="M304.991,354.176c-1.31,0-2.372-1.059-2.372-2.376c0-66.85-111.044-148.9-112.167-149.723
		c-1.059-0.775-1.291-2.26-0.513-3.319c0.771-1.055,2.26-1.287,3.319-0.513c4.655,3.405,114.105,84.313,114.105,153.551
		C307.367,353.117,306.304,354.176,304.991,354.176z"/>
</g>
<path style="fill:#E9C29C;" d="M314.779,140.159c0,42.155-34.159,76.306-76.298,76.306c-42.143,0-76.294-34.151-76.294-76.306
	c0-42.136,34.151-76.298,76.294-76.298C280.621,63.861,314.779,98.023,314.779,140.159z"/>
<ellipse style="fill:#343433;" cx="269.594" cy="135.152" rx="14.454" ry="15.259"/>
<path style="fill:#FFFFFF;" d="M279.861,129.36c0,3.364-2.574,6.107-5.777,6.107c-3.18,0-5.766-2.739-5.766-6.107
	c0-3.379,2.586-6.107,5.766-6.107C277.287,123.254,279.861,125.981,279.861,129.36z"/>
<ellipse style="fill:#343433;" cx="206.957" cy="135.152" rx="14.451" ry="15.259"/>
<ellipse style="fill:#FFFFFF;" cx="211.297" cy="129.36" rx="5.777" ry="6.107"/>
<path style="fill:#A46434;" d="M237.759,94.03c-1.31,0-2.372-1.059-2.372-2.376V87.4c-1.268-0.778-2.499-1.747-3.693-2.907
	c-6.305-6.151-1.994-13.792,3.457-23.465c0.359-0.823,0.071-4.557-0.617-7.794c-0.273-1.283,0.546-2.544,1.826-2.814
	c1.28-0.269,2.544,0.543,2.818,1.826c0.528,2.462,1.59,8.494,0.109,11.113c-5.381,9.545-7.813,14.282-4.281,17.728
	c0.127,0.12,0.254,0.239,0.382,0.363v-2.346c0-4.056,2.369-7.951,5.897-9.684c2.058-1.018,6.275-2.125,11.379,1.804
	c2.803,2.148,4.138,5.583,3.592,9.194c-0.58,3.772-3.102,6.915-6.582,8.187c-3.338,1.224-6.526,1.482-9.538,0.778v2.264
	C240.139,92.972,239.072,94.03,237.759,94.03z M240.139,84.478c2.44,0.861,5.01,0.73,7.903-0.322
	c1.852-0.685,3.203-2.391,3.517-4.453c0.138-0.894,0.239-3.154-1.789-4.715c-2.312-1.781-4.52-2.226-6.391-1.31
	c-1.882,0.924-3.244,3.21-3.244,5.426v5.373H240.139z"/>
<circle style="fill:#49A0AE;" cx="239.323" cy="175.638" r="17.403"/>
<circle style="fill:#3D929A;" cx="239.323" cy="175.638" r="9.497"/>
<g>
	<circle style="fill:#357180;" cx="239.323" cy="175.638" r="5.803"/>
	<path style="fill:#357180;" d="M239.132,200.955c-5.452,0-8.711-1.078-10.267-3.39c-2.23-3.315-0.355-7.903,2.013-13.721
		c1.171-2.862,2.492-6.099,3.356-9.399c0.224-0.849,1.104-1.347,1.938-1.126c0.846,0.225,1.347,1.085,1.123,1.934
		c-0.917,3.502-2.279,6.836-3.484,9.785c-1.856,4.55-3.611,8.842-2.324,10.758c0.891,1.325,3.465,1.994,7.644,1.994
		c4.314,0,6.993-0.745,7.959-2.223c1.534-2.35-0.696-7.446-3.057-12.849c-1.033-2.354-2.103-4.793-3.031-7.33
		c-0.296-0.827,0.127-1.732,0.95-2.032c0.816-0.299,1.729,0.127,2.028,0.947c0.891,2.447,1.938,4.834,2.949,7.143
		c2.833,6.477,5.28,12.075,2.806,15.85C248.105,199.791,244.737,200.955,239.132,200.955z"/>
</g>
<g>
	<circle style="fill:#E9C29C;" cx="310.94" cy="138.056" r="13.055"/>
	<circle style="fill:#E9C29C;" cx="162.205" cy="138.056" r="13.055"/>
</g>
<g>
</g>
<g>
</g>
<g>
</g>
<g>
</g>
<g>
</g>
<g>
</g>
<g>
</g>
<g>
</g>
<g>
</g>
<g>
</g>
<g>
</g>
<g>
</g>
<g>
</g>
<g>
</g>
<g>
</g>
</svg>
