<?xml version="1.0" encoding="iso-8859-1"?>
<!-- Generator: Adobe Illustrator 19.0.0, SVG Export Plug-In . SVG Version: 6.00 Build 0)  -->
<svg version="1.1" id="Layer_1" xmlns="http://www.w3.org/2000/svg" xmlns:xlink="http://www.w3.org/1999/xlink" x="0px" y="0px"
	 viewBox="0 0 473.931 473.931" style="enable-background:new 0 0 473.931 473.931;" xml:space="preserve">
<circle style="fill:#49A0AE;" cx="236.966" cy="236.966" r="236.966"/>
<polygon style="fill:#E9C29C;" points="241.946,271.577 222.025,247.922 241.946,247.922 265.384,247.922 "/>
<path style="fill:#F5EFD8;" d="M322.641,385.689c0,20.516-15.143,37.156-33.829,37.156h-92.309
	c-18.679,0-33.822-16.636-33.822-37.156c0,0,7.745-80.489,14.091-100.623c6.342-20.112,15.143-37.148,33.829-37.148h11.424
	l19.921,20.711l23.438-20.711h12.161c18.679,0,28.89,12.381,33.822,37.148C316.298,309.844,322.641,385.689,322.641,385.689z"/>
<path style="fill:#E9C29C;" d="M322.641,385.689c0,20.516-15.143,37.156-33.829,37.156l-4.969-37.137L322.641,385.689z"/>
<path style="fill:#F5EFD8;" d="M322.641,385.689l-38.761,0.007l-18.496-137.775h12.161c18.679,0,28.89,12.381,33.822,37.148
	C316.298,309.844,322.641,385.689,322.641,385.689z"/>
<g>
	<path style="fill:#E9C29C;" d="M196.502,422.845c-18.679,0-33.822-16.636-33.822-37.156l40.808,0.112L196.502,422.845z"/>
	<path style="fill:#E9C29C;" d="M309.997,170.77c0,37.665-30.518,68.182-68.171,68.182s-68.171-30.514-68.171-68.182
		c0-37.646,30.518-68.167,68.171-68.167S309.997,133.124,309.997,170.77z"/>
</g>
<path style="fill:#F1EDCD;" d="M306.746,158.295c0,0,21.422-111.381-64.92-111.381S176.91,158.295,176.91,158.295
	c0-30.731,34.173-55.655,64.92-55.655C272.569,102.64,306.746,127.564,306.746,158.295z"/>
<path style="fill:#A46434;" d="M309.997,170.77l-46.476-41.822c0,0-9.901,16.396-36.299,28.329
	c-25.455,11.506-53.56,13.489-53.56,13.489c0-37.646,30.518-68.167,68.171-68.167S309.997,133.124,309.997,170.77z"/>
<g>
	<ellipse style="fill:#343433;" cx="221.4" cy="180.914" rx="9.339" ry="9.863"/>
	<ellipse style="fill:#343433;" cx="261.886" cy="180.914" rx="9.343" ry="9.863"/>
</g>
<g>
	<ellipse style="fill:#FFFFFF;" cx="264.786" cy="177.172" rx="3.731" ry="3.948"/>
	<ellipse style="fill:#FFFFFF;" cx="224.206" cy="177.172" rx="3.734" ry="3.948"/>
</g>
<path style="fill:#F5EFD8;" d="M162.681,385.689c0,0,7.745-80.489,14.091-100.623c6.342-20.112,15.143-37.148,33.829-37.148
	l11.424-0.045l-18.533,137.925L162.681,385.689z"/>
<g>
	
		<line style="fill:none;stroke:#BBBCBB;stroke-width:0.5;stroke-miterlimit:10;" x1="241.942" y1="422.969" x2="241.942" y2="267.76"/>
	<circle style="fill:#F1EDCD;stroke:#E9D8B8;stroke-width:0.25;stroke-miterlimit:10;" cx="242.717" cy="79.138" r="21.182"/>
</g>
<g>
	<path style="fill:#D62127;" d="M247.009,92.002c0,1.373-1.119,2.499-2.492,2.499h-3.603c-1.373,0-2.492-1.126-2.492-2.499v-25.74
		c0-1.384,1.119-2.499,2.492-2.499h3.603c1.373,0,2.492,1.115,2.492,2.499V92.002z"/>
	<path style="fill:#D62127;" d="M229.845,83.426c-1.373,0-2.492-1.115-2.492-2.496v-3.603c0-1.373,1.119-2.492,2.492-2.492h25.747
		c1.381,0,2.492,1.119,2.492,2.492v3.603c0,1.381-1.111,2.496-2.492,2.496H229.845z"/>
</g>
<g>
</g>
<g>
</g>
<g>
</g>
<g>
</g>
<g>
</g>
<g>
</g>
<g>
</g>
<g>
</g>
<g>
</g>
<g>
</g>
<g>
</g>
<g>
</g>
<g>
</g>
<g>
</g>
<g>
</g>
</svg>
