<?xml version="1.0" encoding="iso-8859-1"?>
<!-- Generator: Adobe Illustrator 19.0.0, SVG Export Plug-In . SVG Version: 6.00 Build 0)  -->
<svg version="1.1" id="Layer_1" xmlns="http://www.w3.org/2000/svg" xmlns:xlink="http://www.w3.org/1999/xlink" x="0px" y="0px"
	 viewBox="0 0 473.935 473.935" style="enable-background:new 0 0 473.935 473.935;" xml:space="preserve">
<circle style="fill:#F37C2A;" cx="236.967" cy="236.967" r="236.967"/>
<path style="fill:#C1E4DD;" d="M243.92,41.328c-1.811-0.902-3.727-1.407-5.699-1.411h-2.537c-1.979,0.004-3.888,0.516-5.699,1.407
	c-19.023,1.65-29.743,13.414-29.736,27.704l-0.007,306.98c0,5.725,3.689,17.078,15.143,21.912v3.023
	c0,19.207,9.093,34.735,20.295,34.735l2.544,0.037c11.21,0,20.303-15.566,20.31-34.772l-0.007-3.027
	c11.454-4.831,15.143-14.761,15.135-21.908l0.007-306.98C273.667,54.739,262.943,42.986,243.92,41.328z"/>
<path style="fill:#E0F1EF;" d="M242.677,45.953c-1.489-0.883-3.053-1.373-4.685-1.377h-2.084c-1.631,0-3.195,0.501-4.685,1.377
	c-15.641,1.609-27.779,13.096-27.779,27.049v299.803c0.007,10.084,6.35,18.862,15.772,23.585v2.952
	c0,18.761,7.469,33.96,16.692,33.96H238c9.209,0,16.685-15.203,16.685-33.96v-2.952c9.422-4.715,15.772-13.497,15.772-23.585V72.999
	C270.456,59.049,258.318,47.562,242.677,45.953z"/>
<rect x="206.509" y="124.489" style="fill:#E3E1C6;" width="60.43" height="256.088"/>
<g>
	<path style="fill:#B3DCD2;" d="M248.87,191.033c-0.007,2.039-1.826,3.682-4.056,3.682l-38.537,0.004v-7.379h38.529
		C247.048,187.344,248.863,188.994,248.87,191.033L248.87,191.033z"/>
	<path style="fill:#B3DCD2;" d="M248.863,245.517c0,2.036-1.811,3.686-4.056,3.686l-38.529-0.004v-7.375l38.529-0.004
		C247.048,241.824,248.863,243.471,248.863,245.517L248.863,245.517z"/>
	<path style="fill:#B3DCD2;" d="M230.333,217.585c0,2.032-1.811,3.689-4.064,3.682h-19.906l0.007-7.375h19.899
		C228.515,213.892,230.333,215.546,230.333,217.585L230.333,217.585z"/>
	<path style="fill:#B3DCD2;" d="M248.863,136.998c0,2.032-1.811,3.682-4.056,3.682h-38.529v-7.375h38.537
		C247.048,133.305,248.863,134.959,248.863,136.998L248.863,136.998z"/>
	<path style="fill:#B3DCD2;" d="M230.333,163.546c0,2.032-1.819,3.682-4.056,3.682h-19.906l-0.007-7.379l19.914,0.004
		C228.522,159.857,230.333,161.507,230.333,163.546L230.333,163.546z"/>
	<path style="fill:#B3DCD2;" d="M248.863,299.163c0.007,2.039-1.811,3.682-4.056,3.682h-38.529v-7.375h38.537
		C247.048,295.474,248.863,297.128,248.863,299.163L248.863,299.163z"/>
	<path style="fill:#B3DCD2;" d="M230.333,271.235c-0.007,2.032-1.819,3.682-4.056,3.689l-19.906-0.007v-7.375h19.906
		C228.515,267.542,230.333,269.195,230.333,271.235L230.333,271.235z"/>
	<path style="fill:#B3DCD2;" d="M248.863,354.198c0,2.028-1.819,3.678-4.056,3.682l-38.529,0.004v-7.383h38.529
		C247.048,350.512,248.863,352.158,248.863,354.198L248.863,354.198z"/>
	<path style="fill:#B3DCD2;" d="M230.333,326.273c0,2.028-1.811,3.682-4.056,3.682h-19.906v-7.375l19.906-0.004
		C228.522,322.58,230.333,324.226,230.333,326.273L230.333,326.273z"/>
</g>
<rect x="233.188" y="44.565" style="fill:#CDCCCB;" width="7.558" height="173.806"/>
<rect x="233.188" y="44.565" style="fill:#D0D1D1;" width="3.682" height="173.806"/>
<path style="fill:#E84849;" d="M240.728,218.389h-4.041h-3.51v178.929l-10.986,5.141c0,15.308,6.103,27.719,13.624,27.719h0.722
	h0.98c7.521-0.004,13.624-12.408,13.624-27.715l-10.413-5.063V218.389z"/>
<path style="fill:#DC3735;" d="M240.728,218.389h-4.041l-0.146,211.793h0.98c7.521-0.004,13.624-12.408,13.624-27.715l-10.413-5.063
	V218.389H240.728z"/>
<path style="fill:#AAAAAA;" d="M196.47,75.842c0-18.189,17.059-37.654,38.106-37.654h2.193h2.567
	c21.04-0.007,38.106,19.461,38.106,37.654h-41.006H196.47z"/>
<path style="fill:#BFBEBE;" d="M196.47,75.842c0-18.189,17.059-37.654,38.106-37.654h2.193l-0.329,37.654H196.47z"/>
<g>
</g>
<g>
</g>
<g>
</g>
<g>
</g>
<g>
</g>
<g>
</g>
<g>
</g>
<g>
</g>
<g>
</g>
<g>
</g>
<g>
</g>
<g>
</g>
<g>
</g>
<g>
</g>
<g>
</g>
</svg>
